<svg width="70" height="70" viewBox="0 0 70 70" fill="none" xmlns="http://www.w3.org/2000/svg">
<g id="001-fashion">
<g id="XMLID_2160_">
<g id="XMLID_2023_">
<g id="XMLID_284_">
<path id="XMLID_311_" d="M69.0297 9.62924L44.6938 2.24643C44.5651 2.20746 44.4313 2.1875 44.2969 2.1875H25.7031C25.5687 2.1875 25.4349 2.20746 25.3062 2.24643L0.970293 9.62924C0.394023 9.80396 0 10.3354 0 10.9375V29.2459C0 30.0009 0.612227 30.6131 1.36719 30.6131H11.4844V66.4453C11.4844 67.2003 12.0966 67.8125 12.8516 67.8125H28.8477C29.6026 67.8125 30.2148 67.2003 30.2148 66.4453C30.2148 65.6904 29.6026 65.0781 28.8477 65.0781H14.2188V8.4674L19.2259 6.94832C20.7981 14.3116 27.3221 19.6875 35 19.6875C42.6731 19.6875 49.2014 14.3101 50.7743 6.94846L55.7812 8.4674V65.0781H41.1523C40.3974 65.0781 39.7852 65.6904 39.7852 66.4453C39.7852 67.2003 40.3974 67.8125 41.1523 67.8125H57.1484C57.9034 67.8125 58.5156 67.2003 58.5156 66.4453V30.6131H68.6328C69.3878 30.6131 70 30.0009 70 29.2459V10.9375C70 10.3354 69.606 9.80396 69.0297 9.62924ZM42.8092 4.92188C42.1593 8.64473 38.9061 11.4844 35 11.4844C31.0939 11.4844 27.8407 8.64473 27.1908 4.92188H42.8092ZM11.4844 27.8787H2.73438V11.9514L11.4844 9.29688V27.8787ZM35 16.9531C28.5459 16.9531 23.0762 12.3791 21.8561 6.15043L24.4903 5.35131C25.3472 10.3786 29.7322 14.2188 35 14.2188C40.2678 14.2188 44.6528 10.3786 45.5097 5.35131L48.1437 6.15043C46.9231 12.3777 41.4501 16.9531 35 16.9531ZM67.2656 27.8787H58.5156V9.29688L67.2656 11.9514V27.8787Z" fill="#27AE60"/>
<path id="XMLID_315_" d="M35 65.0781C34.6404 65.0781 34.2877 65.2243 34.0334 65.4787C33.7791 65.7331 33.6328 66.0857 33.6328 66.4453C33.6328 66.8049 33.779 67.1576 34.0334 67.4118C34.2877 67.6661 34.6404 67.8125 35 67.8125C35.3596 67.8125 35.7123 67.6662 35.9665 67.4118C36.2209 67.1576 36.3672 66.8049 36.3672 66.4453C36.3672 66.0857 36.2209 65.733 35.9665 65.4787C35.7123 65.2243 35.3596 65.0781 35 65.0781Z" fill="#27AE60"/>
<path id="XMLID_318_" d="M41.9682 48.4468C42.7666 47.8665 43.1587 46.9015 42.9915 45.9287L42.1778 41.1909L45.6191 37.8343C46.3258 37.1451 46.5752 36.1339 46.27 35.1952C45.9649 34.2566 45.1684 33.5855 44.1915 33.4436L39.4338 32.7537L37.3053 28.4434C36.8683 27.5584 35.9839 27.0089 34.997 27.0089H34.9964C34.0092 27.0092 33.125 27.5592 32.6881 28.4446L30.5617 32.756L25.8043 33.4485C24.8275 33.5908 24.0315 34.2624 23.7268 35.2012C23.422 36.1401 23.6721 37.1513 24.3791 37.8399L27.8223 41.1947L27.0109 45.933C26.8442 46.9059 27.2369 47.8706 28.0356 48.4505C28.4868 48.7781 29.0145 48.9445 29.5458 48.9445C29.9551 48.9445 30.3667 48.8456 30.7469 48.6456L35.0013 46.4075L39.2569 48.6434C40.1307 49.1024 41.1695 49.0275 41.9682 48.4468V48.4468ZM35.6369 43.6526C35.2386 43.4435 34.7628 43.4436 34.3643 43.6531L29.7607 46.0749L30.6387 40.9477C30.7147 40.5041 30.5675 40.0516 30.2452 39.7376L26.5192 36.1075L31.6667 35.3583C32.112 35.2935 32.4969 35.0137 32.6959 34.6101L34.9968 29.9448L37.3003 34.6088C37.4995 35.0123 37.8845 35.2919 38.3298 35.3565L43.4776 36.103L39.7538 39.735C39.4318 40.0491 39.2847 40.5017 39.361 40.9453L40.2416 46.0719L35.6369 43.6526Z" fill="#27AE60"/>
<path id="XMLID_319_" d="M35 51.7686C34.245 51.7686 33.6328 52.3808 33.6328 53.1357V55.5643C33.6328 56.3192 34.245 56.9315 35 56.9315C35.755 56.9315 36.3672 56.3192 36.3672 55.5643V53.1357C36.3672 52.3808 35.755 51.7686 35 51.7686Z" fill="#27AE60"/>
<path id="XMLID_631_" d="M46.7308 44.1318L49.0405 44.8822C49.1808 44.9277 49.3231 44.9495 49.4632 44.9495C50.0395 44.9495 50.5756 44.5821 50.7633 44.0043C50.9965 43.2863 50.6036 42.5149 49.8854 42.2815L47.5757 41.5311C46.8576 41.2983 46.0861 41.6906 45.8529 42.409C45.6196 43.127 46.0126 43.8984 46.7308 44.1318Z" fill="#27AE60"/>
<path id="XMLID_642_" d="M42.51 29.9119C42.9328 29.9119 43.3498 29.7164 43.6172 29.3482L45.0445 27.3836C45.4884 26.7727 45.353 25.9177 44.7421 25.4739C44.1315 25.0301 43.2762 25.1653 42.8324 25.7763L41.4051 27.741C40.9611 28.3518 41.0966 29.2069 41.7075 29.6507C41.9502 29.827 42.2313 29.9119 42.51 29.9119Z" fill="#27AE60"/>
<path id="XMLID_643_" d="M27.4898 29.9119C27.7685 29.9119 28.0498 29.827 28.2924 29.6506C28.9032 29.2068 29.0387 28.3518 28.5948 27.7409L27.1675 25.7762C26.7238 25.1653 25.8686 25.0299 25.2578 25.4738C24.6469 25.9176 24.5114 26.7727 24.9554 27.3835L26.3827 29.3482C26.6503 29.7163 27.0673 29.9119 27.4898 29.9119V29.9119Z" fill="#27AE60"/>
<path id="XMLID_644_" d="M22.4245 41.5311L20.1148 42.2816C19.3966 42.515 19.0037 43.2863 19.2369 44.0044C19.4246 44.5823 19.9606 44.9495 20.537 44.9495C20.6768 44.9495 20.8193 44.9278 20.9597 44.8822L23.2694 44.1318C23.9876 43.8984 24.3806 43.127 24.1473 42.409C23.9138 41.6907 23.1427 41.2979 22.4245 41.5311V41.5311Z" fill="#27AE60"/>
</g>
</g>
</g>
</g>
</svg>
