<svg width="37" height="25" viewBox="0 0 37 25" fill="none" xmlns="http://www.w3.org/2000/svg">
<g id="menu-right">
<g id="menu-right_2">
<path d="M14.3828 18.0048C14.3828 18.5544 14.8284 19 15.378 19H23.3876C23.9372 19 24.3828 18.5544 24.3828 18.0048C24.3828 17.4552 23.9372 17.0096 23.3876 17.0096H15.378C14.8284 17.0096 14.3828 17.4552 14.3828 18.0048Z" fill="white"/>
<path d="M14.3828 12.0002C14.3828 12.5499 14.8284 12.9954 15.378 12.9954H33.3876C33.9372 12.9954 34.3828 12.5499 34.3828 12.0002C34.3828 11.4506 33.9373 11.0051 33.3876 11.0051H15.378C14.8284 11.0051 14.3828 11.4506 14.3828 12.0002Z" fill="white"/>
<path d="M15.378 6.99039C14.8284 6.99039 14.3828 6.54482 14.3828 5.99519C14.3828 5.44556 14.8284 5 15.378 5H27.3876C27.9372 5 28.3828 5.44556 28.3828 5.99519C28.3828 6.54482 27.9372 6.99039 27.3876 6.99039H15.378Z" fill="white"/>
</g>
</g>
</svg>
